<?xml version="1.0" standalone="no"?>
<!DOCTYPE svg PUBLIC "-//W3C//DTD SVG 20010904//EN"
 "http://www.w3.org/TR/2001/REC-SVG-20010904/DTD/svg10.dtd">
<svg version="1.0" xmlns="http://www.w3.org/2000/svg"
 width="512.000000pt" height="512.000000pt" viewBox="0 0 512.000000 512.000000"
 preserveAspectRatio="xMidYMid meet">
<metadata>
Created by potrace 1.14, written by Peter Selinger 2001-2017
</metadata>
<g transform="translate(0.000000,512.000000) scale(0.100000,-0.100000)"
fill="#000000" stroke="none">
<path d="M2928 5036 c-10 -7 -18 -21 -18 -30 0 -14 -12 -21 -33 -17 -4 1 -7
-4 -6 -11 3 -29 -2 -44 -24 -68 -12 -14 -33 -42 -46 -63 -12 -20 -26 -35 -29
-33 -4 2 -16 -2 -27 -10 -10 -8 -14 -14 -9 -14 6 0 15 5 22 12 9 9 12 9 12 1
0 -7 -5 -15 -10 -18 -6 -4 -7 -12 -3 -18 5 -9 2 -8 -8 0 -13 11 -15 9 -14 -9
1 -12 -7 -30 -17 -40 -10 -10 -16 -23 -13 -27 5 -10 -18 -33 -31 -30 -21 3
-24 -2 -13 -23 11 -21 11 -22 -4 -10 -14 12 -15 11 -11 -11 3 -17 -1 -27 -12
-31 -14 -5 -15 -4 -4 9 8 9 9 15 2 15 -6 0 -16 -8 -22 -17 -11 -17 -11 -17 -6
0 3 9 1 17 -4 17 -6 0 -10 -6 -10 -12 0 -9 -4 -8 -10 2 -5 8 -10 11 -10 6 0
-5 -10 -1 -22 10 -22 19 -22 19 -8 0 14 -18 13 -19 -3 -13 -10 4 -23 7 -28 7
-6 0 -7 6 -3 13 5 8 3 8 -9 -2 -15 -12 -18 -10 -26 10 -8 19 -10 20 -10 6 -1
-10 -6 -15 -11 -12 -6 4 -8 10 -6 14 3 4 -1 8 -9 8 -8 0 -12 -4 -9 -9 3 -4 0
-8 -5 -8 -6 0 -11 5 -11 11 0 5 -5 7 -12 3 -8 -5 -9 -2 -4 11 5 15 4 16 -9 5
-8 -7 -15 -9 -15 -4 0 5 -5 2 -10 -6 -8 -13 -10 -13 -10 2 0 12 -5 15 -17 11
-10 -4 -14 -2 -10 4 4 6 -3 8 -20 5 -21 -4 -25 -2 -20 12 4 9 2 16 -3 16 -6 0
-10 -7 -10 -15 0 -8 -4 -15 -10 -15 -5 0 -10 8 -10 18 0 10 -3 13 -8 6 -8 -13
-44 -15 -36 -2 3 5 10 5 16 2 7 -4 8 -2 4 4 -5 9 -13 9 -26 2 -23 -12 -33 -13
-26 -1 3 5 -3 11 -15 14 -18 5 -18 3 -7 -11 12 -15 11 -16 -5 -3 -10 8 -15 21
-12 29 5 13 3 13 -12 1 -15 -12 -16 -12 -11 2 4 9 1 16 -7 16 -7 0 -11 -7 -8
-15 5 -12 2 -12 -15 -3 -25 13 -35 14 -28 2 3 -4 -6 -6 -19 -3 -14 2 -23 8
-20 12 3 4 -2 11 -11 14 -11 4 -15 2 -11 -8 4 -10 1 -13 -8 -9 -8 3 -12 10 -8
17 4 6 -1 5 -10 -3 -17 -13 -21 -8 -19 19 0 3 -8 6 -19 6 -10 0 -19 -4 -19 -8
0 -4 5 -8 12 -8 6 0 9 -2 6 -5 -8 -8 -39 6 -33 15 3 5 1 12 -5 15 -6 4 -10 3
-9 -2 3 -19 -2 -23 -21 -13 -11 6 -19 7 -18 3 5 -17 -23 -52 -37 -47 -11 5
-13 2 -8 -12 4 -12 3 -15 -5 -10 -7 4 -12 2 -12 -4 0 -6 -4 -9 -9 -5 -14 8
-25 -15 -13 -27 8 -8 6 -18 -5 -34 -8 -13 -11 -24 -7 -24 5 0 0 -7 -10 -15
-11 -8 -17 -15 -13 -15 4 0 3 -9 -3 -20 -10 -19 -12 -19 -38 -4 -22 13 -24 13
-8 1 10 -9 15 -20 11 -26 -4 -7 0 -8 11 -4 12 4 15 3 10 -6 -5 -7 -16 -11 -25
-8 -10 2 -18 -1 -18 -9 0 -7 4 -11 8 -8 4 2 11 0 14 -6 4 -6 1 -9 -6 -8 -6 2
-14 -3 -17 -11 -3 -9 0 -11 9 -6 8 5 6 -1 -4 -13 -11 -11 -16 -26 -12 -32 3
-6 1 -9 -6 -8 -7 2 -14 -1 -14 -7 -2 -24 -17 -55 -26 -55 -6 0 -7 -4 -4 -10 4
-6 -1 -7 -11 -3 -14 5 -15 3 -4 -17 10 -18 9 -21 -1 -15 -9 6 -11 3 -6 -9 4
-10 3 -15 -3 -11 -6 3 -10 -1 -10 -9 0 -9 -4 -16 -10 -16 -13 0 -13 13 1 27 8
8 7 13 -2 18 -7 5 -10 4 -5 -3 3 -6 2 -13 -2 -16 -5 -3 -9 -19 -10 -36 0 -19
3 -28 10 -24 7 4 8 2 4 -5 -5 -8 -12 -9 -20 -2 -8 7 -11 1 -10 -24 1 -19 -4
-39 -11 -45 -8 -6 -11 -19 -8 -28 3 -11 2 -13 -4 -6 -14 19 -40 12 -38 -10 0
-12 -4 -27 -9 -35 -9 -12 -7 -13 6 -8 26 9 7 -35 -20 -48 -12 -5 -22 -13 -22
-18 0 -4 5 -5 11 -1 7 4 7 -2 -1 -17 -15 -29 -25 -40 -18 -19 4 11 -2 15 -20
17 -22 1 -23 0 -9 -9 10 -5 15 -14 11 -19 -4 -6 -14 -3 -27 8 -11 10 -18 13
-14 7 4 -7 -11 -11 -43 -11 -35 -1 -48 2 -43 11 5 8 3 8 -8 0 -8 -6 -23 -10
-34 -7 -21 4 -112 11 -153 12 -16 1 -21 5 -16 14 5 8 2 8 -9 -2 -13 -10 -20
-11 -30 -2 -10 8 -17 7 -25 -1 -9 -9 -12 -9 -12 -1 0 7 -9 10 -23 7 -27 -7
-28 -7 -97 1 -30 3 -58 11 -62 18 -6 9 -8 9 -8 0 0 -18 -52 -12 -68 7 -11 13
-11 13 -7 -1 5 -12 0 -15 -22 -13 -15 1 -29 3 -30 4 -2 1 -11 3 -21 4 -11 0
-27 8 -38 16 -17 14 -18 14 -6 -2 12 -15 11 -17 -7 -15 -12 1 -21 4 -21 8 0 3
-11 4 -25 1 -14 -2 -33 2 -42 9 -12 10 -14 10 -9 2 4 -8 1 -13 -8 -13 -9 0
-16 5 -16 12 0 9 -3 9 -12 0 -14 -14 -32 -16 -24 -4 6 10 -30 9 -40 0 -10 -11
-34 3 -27 16 3 6 1 6 -8 -1 -16 -16 -49 -17 -49 -2 0 5 5 7 10 4 6 -3 10 -1
10 4 0 17 -18 13 -29 -6 -6 -10 -11 -13 -11 -8 0 16 -67 6 -82 -12 -16 -20
-20 -103 -5 -103 8 0 8 -3 2 -8 -19 -14 -14 -86 8 -104 11 -10 16 -18 10 -18
-5 0 -20 11 -33 25 -13 14 -28 25 -33 25 -5 0 4 -12 21 -26 19 -17 28 -33 25
-45 -3 -10 -10 -16 -16 -12 -6 3 -7 1 -3 -6 9 -14 26 -5 26 15 0 15 12 19 24
7 4 -5 13 -8 19 -8 7 0 11 -10 11 -23 -1 -12 3 -22 8 -22 6 0 22 -9 38 -20 23
-16 27 -26 25 -60 -3 -42 9 -55 18 -20 3 11 1 18 -4 14 -5 -3 -6 2 -2 12 5 13
7 14 14 2 11 -19 6 -48 -10 -57 -10 -6 -8 -10 5 -15 9 -3 19 -4 22 -1 3 3 0 5
-7 5 -7 0 -9 5 -6 10 5 8 11 7 21 -1 7 -6 12 -15 9 -19 -3 -5 0 -12 6 -15 5
-4 8 -12 6 -19 -6 -14 30 -19 38 -5 4 5 -2 6 -11 2 -14 -5 -16 -3 -11 11 5 11
3 15 -5 10 -7 -5 -8 -3 -3 6 6 9 4 11 -6 5 -8 -5 -11 -5 -7 0 4 4 3 14 -3 22
-6 7 -7 13 -2 13 5 0 15 -9 23 -19 7 -11 18 -17 23 -14 6 3 7 1 4 -4 -4 -6 2
-18 13 -28 11 -10 17 -22 14 -27 -3 -5 2 -8 12 -6 11 2 18 -2 16 -10 -1 -7 5
-15 13 -18 8 -4 15 -12 15 -19 0 -7 9 -15 20 -18 11 -3 19 -11 18 -19 -2 -7 2
-12 9 -11 7 2 10 -4 6 -13 -3 -8 -2 -14 3 -13 21 4 34 -2 32 -13 -2 -7 3 -12
10 -10 8 1 11 -2 7 -8 -3 -5 -1 -10 4 -10 6 0 11 -15 11 -34 0 -19 5 -38 10
-41 6 -3 10 -1 10 5 0 6 4 8 10 5 6 -3 7 1 3 10 -4 13 -7 14 -14 3 -6 -9 -8
-6 -6 10 l1 22 22 -22 c12 -13 22 -25 22 -28 0 -22 3 -30 12 -25 6 3 10 1 10
-5 0 -6 6 -8 13 -4 6 4 9 4 5 -1 -4 -4 6 -18 22 -32 17 -14 38 -38 47 -54 10
-16 23 -29 29 -29 7 0 16 -9 19 -20 3 -11 10 -20 15 -20 5 0 8 -13 8 -30 -1
-24 -4 -28 -15 -19 -9 8 -10 15 -3 24 8 9 8 15 0 20 -6 4 -10 3 -9 -2 1 -4 1
-10 -1 -13 -8 -21 -8 -50 0 -55 6 -4 7 1 3 12 -6 15 -4 16 9 6 8 -7 17 -11 20
-8 3 3 11 -1 17 -9 10 -12 9 -17 -7 -25 -11 -6 -21 -8 -24 -6 -3 3 -5 -2 -5
-10 0 -8 4 -15 9 -15 4 0 8 5 8 11 0 6 7 8 16 5 10 -4 13 -2 8 6 -4 6 -3 8 2
5 6 -3 10 5 10 18 0 13 -4 21 -10 18 -5 -4 -6 -1 -1 7 6 9 4 11 -5 5 -9 -5
-11 -4 -6 3 4 7 2 12 -4 12 -6 0 -8 5 -5 10 10 16 38 -18 40 -48 2 -31 -12
-55 -27 -46 -6 4 -8 -1 -4 -13 4 -12 -1 -27 -13 -40 -11 -11 -17 -24 -13 -29
4 -4 1 -4 -6 0 -11 6 -10 12 4 27 10 11 12 19 6 19 -7 0 -12 -5 -12 -11 0 -5
-4 -8 -9 -4 -6 3 -8 -6 -5 -21 4 -22 2 -25 -9 -16 -10 9 -14 8 -14 -2 0 -8 8
-13 19 -11 10 2 18 0 18 -6 0 -5 -6 -9 -14 -9 -7 0 -16 -9 -19 -20 -3 -11 0
-20 6 -20 6 0 3 -6 -6 -12 -10 -7 -19 -23 -22 -36 -7 -37 -14 -43 -38 -31 -21
11 -21 11 -5 -7 17 -20 19 -47 3 -61 -4 -4 -5 -2 -1 5 4 6 2 12 -5 12 -6 0 -9
-8 -7 -18 3 -11 0 -19 -8 -19 -7 0 -11 4 -8 9 10 15 -1 8 -19 -13 -18 -20 -18
-21 4 -14 22 7 22 7 6 -9 -9 -10 -15 -21 -13 -25 3 -4 -11 -6 -29 -6 -19 1
-32 -2 -29 -7 3 -5 14 -6 24 -3 10 3 22 0 26 -6 5 -8 3 -9 -6 -4 -10 6 -12 4
-8 -7 5 -11 0 -15 -20 -14 -15 1 -34 6 -42 11 -13 8 -13 7 -1 -8 7 -9 16 -15
20 -13 4 3 13 1 21 -4 11 -7 11 -12 2 -23 -7 -7 -9 -16 -7 -19 3 -3 -6 -4 -20
-3 -14 2 -23 -1 -19 -6 3 -5 9 -7 13 -5 3 3 7 -4 7 -14 0 -10 -4 -18 -9 -17
-5 1 -12 -4 -15 -12 -3 -9 0 -11 8 -6 9 5 11 4 6 -4 -4 -6 -12 -8 -18 -5 -8 5
-9 1 -4 -11 6 -16 4 -16 -10 -4 -16 13 -16 12 -4 -11 12 -22 12 -24 -2 -12
-13 10 -18 10 -24 1 -4 -7 -3 -10 2 -7 5 3 15 0 22 -8 8 -9 9 -14 2 -14 -6 0
-8 -4 -5 -10 3 -5 1 -10 -6 -10 -8 0 -8 -4 1 -15 7 -8 10 -16 6 -16 -3 -1 -12
-2 -18 -3 -7 -1 -12 -7 -11 -14 4 -16 -9 -15 -27 1 -12 10 -12 9 -2 -4 6 -9 8
-19 4 -23 -4 -4 -2 -7 3 -6 22 5 25 -1 15 -22 -10 -21 -10 -21 3 -5 8 9 13 28
12 41 -2 18 1 23 12 19 12 -5 12 -7 1 -14 -11 -7 -10 -11 2 -19 13 -9 13 -10
0 -10 -13 0 -13 -2 0 -9 8 -6 18 -7 24 -4 5 3 6 1 3 -4 -4 -6 0 -13 8 -17 8
-3 15 -13 15 -22 0 -11 5 -14 16 -10 14 5 15 4 4 -9 -15 -18 -31 -20 -27 -3 1
7 -4 12 -12 13 -8 0 -16 6 -19 13 -2 8 3 10 15 6 13 -5 12 -2 -5 10 -23 18
-43 14 -41 -7 0 -9 2 -9 6 1 2 6 9 12 14 12 4 0 6 -6 3 -14 -5 -14 31 -56 48
-56 5 0 7 -4 4 -8 -2 -4 4 -9 15 -9 12 -1 19 5 19 15 0 13 -2 14 -9 3 -6 -9
-11 -10 -15 -2 -4 6 -4 11 1 12 4 0 15 2 24 4 10 2 16 -3 15 -14 -1 -9 6 -15
16 -15 10 1 16 -2 13 -6 -3 -5 -2 -10 2 -13 5 -2 1 -2 -7 0 -29 8 -33 8 -37
-6 -4 -10 0 -11 17 -6 l23 7 -22 -33 -23 -34 24 27 c26 31 63 37 72 12 10 -26
7 -29 -10 -8 -11 13 -17 15 -20 6 -3 -6 -10 -10 -15 -7 -5 4 -6 -1 -3 -10 6
-14 8 -14 21 2 13 17 14 16 8 -7 -5 -19 -4 -22 4 -10 6 8 11 11 11 6 0 -5 7
-3 15 4 11 9 15 9 15 1 0 -7 5 -9 10 -6 6 4 10 3 9 -2 -3 -20 2 -33 14 -30 6
1 11 -4 9 -12 -2 -8 3 -11 12 -8 9 4 18 2 21 -4 4 -5 11 -6 17 -3 6 4 8 2 5
-3 -7 -11 20 -28 36 -24 5 1 6 -3 3 -8 -4 -5 1 -14 10 -19 15 -8 15 -10 0 -15
-11 -5 -15 -3 -10 5 5 7 3 8 -6 3 -9 -6 -11 -4 -5 5 6 9 4 11 -5 5 -9 -6 -11
-4 -5 5 5 8 4 11 -3 6 -6 -3 -16 3 -22 14 -6 11 -16 17 -22 14 -7 -5 -8 -2 -3
7 5 8 4 10 0 6 -5 -4 -10 -14 -11 -23 -2 -13 0 -13 14 -2 14 11 15 10 8 -7 -4
-11 -4 -17 -1 -13 9 9 56 -33 49 -44 -3 -4 0 -8 5 -8 6 0 11 4 11 9 0 5 9 11
20 14 11 3 20 1 20 -5 0 -5 4 -7 8 -4 4 2 14 1 22 -5 11 -6 12 -9 2 -9 -7 0
-10 -5 -7 -10 5 -8 12 -7 23 2 16 12 16 11 2 -6 -14 -18 -13 -19 3 -13 12 5
16 3 11 -5 -5 -7 -2 -9 9 -5 11 4 14 2 10 -8 -5 -15 -16 -12 -45 13 -10 8 -18
11 -18 6 0 -15 53 -40 82 -38 23 1 25 -2 18 -21 -9 -23 4 -55 23 -55 8 0 7 3
-2 9 -8 5 -10 14 -6 21 5 9 4 11 -3 6 -8 -5 -10 -1 -5 9 4 13 8 14 14 4 4 -7
6 -16 3 -20 -2 -4 3 -10 12 -13 8 -3 13 -10 10 -15 -4 -5 -3 -17 0 -26 5 -13
8 -14 15 -3 13 19 11 36 -2 18 -9 -12 -10 -12 -5 4 4 10 1 26 -6 35 -12 14
-11 15 6 1 17 -13 38 -52 40 -75 1 -5 -5 -16 -14 -23 -13 -11 -11 -11 8 -2 12
6 20 16 16 22 -4 6 -1 9 7 6 8 -3 13 -17 13 -32 -1 -19 2 -24 9 -17 16 16 31
13 18 -3 -15 -18 5 -34 22 -17 9 9 7 11 -8 6 -18 -6 -18 -5 -4 7 13 10 14 16
4 25 -9 8 -15 9 -24 0 -8 -8 -11 -8 -11 0 0 6 6 13 14 16 17 7 49 -26 39 -38
-5 -4 0 -5 10 -2 10 4 16 3 12 -2 -3 -5 4 -12 15 -16 22 -7 24 -13 11 -33 -6
-10 -11 -9 -22 4 -13 16 -12 17 6 11 20 -7 20 -7 1 8 -14 10 -23 12 -30 5 -7
-7 -3 -15 12 -26 17 -12 20 -19 12 -29 -13 -15 7 -68 22 -58 6 3 6 -2 0 -13
-5 -11 -8 -27 -7 -36 2 -10 -1 -20 -6 -24 -5 -3 -6 -11 -3 -17 4 -7 3 -8 -1
-4 -14 12 -15 41 -2 49 7 4 3 6 -10 5 -17 -1 -20 -5 -12 -19 10 -18 1 -24 -17
-10 -5 4 1 -3 13 -16 23 -23 30 -38 14 -28 -5 3 -11 -1 -15 -9 -3 -8 -2 -14 2
-12 4 1 8 -2 9 -8 2 -5 -5 -10 -14 -10 -9 0 -18 -6 -20 -12 -3 -7 0 -13 7 -13
6 0 8 6 4 13 -4 6 -3 9 1 4 13 -12 16 -45 5 -52 -6 -4 -7 -11 -4 -17 5 -7 2
-8 -6 -3 -10 6 -12 0 -8 -23 3 -19 1 -29 -6 -25 -5 4 -7 -1 -3 -10 3 -9 1 -19
-5 -23 -7 -5 -8 -2 -3 7 5 8 -1 5 -13 -5 -24 -21 -31 -36 -8 -17 10 8 16 9 21
1 3 -5 2 -10 -2 -10 -5 0 -9 -8 -10 -17 -5 -66 -9 -78 -28 -75 -20 2 -20 2 0
-13 17 -13 18 -17 5 -25 -8 -5 -15 -21 -16 -37 -1 -15 -2 -28 -4 -28 -1 0 -3
-10 -4 -22 -3 -27 -13 -39 -23 -28 -5 4 -2 10 4 12 9 3 11 14 7 30 -4 16 -3
24 3 20 5 -3 10 0 10 7 0 7 -6 13 -13 13 -7 0 -11 -12 -10 -29 1 -16 -4 -32
-11 -37 -11 -5 -9 -11 5 -27 18 -19 19 -44 1 -44 -4 0 -6 7 -3 15 4 8 1 15 -6
15 -6 0 -8 -4 -5 -10 3 -5 2 -10 -3 -10 -6 0 -13 -7 -16 -16 -5 -13 -4 -14 7
-6 11 10 13 4 11 -31 -1 -23 -3 -50 -3 -59 -1 -10 -5 -18 -11 -18 -5 0 -7 7
-4 15 4 8 1 15 -7 15 -7 0 -9 -3 -6 -7 4 -3 -1 -12 -11 -20 -15 -11 -15 -12
-1 -7 21 7 34 -13 20 -30 -6 -7 -9 -16 -6 -20 3 -3 -1 -1 -8 5 -9 9 -9 12 1
16 6 3 12 9 12 14 0 5 -9 4 -19 -3 -15 -9 -17 -16 -10 -25 14 -17 2 -33 -19
-27 -14 5 -14 4 -2 -4 10 -8 18 -8 27 0 8 6 16 8 20 4 3 -3 1 -6 -6 -6 -7 0
-9 -5 -5 -12 4 -6 3 -8 -2 -5 -5 3 -21 -4 -34 -14 -22 -18 -22 -19 -3 -10 31
15 38 14 22 -6 -10 -11 -10 -14 -1 -9 7 4 12 2 12 -4 0 -8 -9 -10 -24 -6 -14
3 -28 2 -31 -4 -3 -5 0 -7 8 -4 20 7 17 -34 -3 -46 -11 -7 -11 -10 -2 -10 7 0
10 -5 6 -12 -4 -7 -3 -8 4 -4 7 4 12 3 12 -2 0 -6 -7 -12 -15 -16 -8 -3 -15
-11 -15 -18 0 -9 3 -9 10 2 7 12 9 10 7 -8 0 -12 -4 -22 -8 -22 -3 0 -6 -8 -6
-18 0 -38 -3 -52 -13 -52 -5 0 -6 8 -3 17 5 13 2 15 -11 10 -10 -4 -20 -7 -23
-7 -3 0 5 -8 17 -18 22 -18 21 -50 -1 -37 -5 4 -9 1 -9 -4 0 -6 4 -11 9 -11
10 0 9 -46 -2 -56 -3 -3 -11 -3 -17 1 -9 6 -9 9 0 15 10 6 10 12 0 26 -9 15
-10 15 -6 2 4 -15 -23 -50 -30 -38 -1 3 -6 2 -10 -2 -3 -4 3 -6 14 -3 25 4 34
-5 22 -25 -10 -17 -1 -42 12 -34 6 4 2 -6 -8 -22 -18 -28 -18 -29 1 -14 17 13
18 13 13 -1 -5 -12 -1 -15 18 -13 22 2 24 0 12 -14 -11 -15 -11 -15 3 -5 9 7
18 11 21 8 3 -3 11 3 19 12 13 16 12 17 -3 4 -10 -7 -18 -9 -18 -4 0 5 12 15
26 22 24 10 26 10 20 -6 -6 -17 -5 -17 7 -1 8 10 17 15 21 11 4 -4 4 1 0 10
-3 10 -3 17 2 16 5 -1 17 1 27 6 10 4 24 2 35 -6 14 -11 15 -11 5 1 -15 16
-17 34 -4 26 5 -3 12 1 15 9 4 12 10 13 25 6 19 -11 31 -6 31 13 0 6 -4 5 -9
-3 -5 -8 -11 -9 -14 -3 -4 5 23 24 59 42 36 19 67 37 70 42 3 5 12 4 19 -2 10
-8 15 -8 21 1 4 8 3 9 -4 5 -7 -4 -12 -2 -12 3 0 6 5 11 11 11 6 0 24 10 41
21 25 18 32 19 39 8 6 -10 9 -7 9 11 0 20 2 22 10 10 8 -13 10 -12 10 3 0 9 4
17 10 17 5 0 7 -7 4 -15 -4 -8 -1 -15 7 -15 7 0 9 3 6 6 -11 11 14 46 29 40 8
-3 14 -1 14 3 0 11 62 51 79 51 7 0 9 -4 6 -10 -3 -6 1 -7 10 -3 11 4 13 8 5
13 -16 10 15 34 35 26 8 -3 14 0 12 7 -1 7 4 11 12 9 8 -2 18 3 23 10 6 11 10
11 17 0 7 -11 9 -10 15 3 3 9 11 13 17 9 8 -4 9 -3 5 5 -6 9 -11 9 -22 0 -8
-7 -14 -7 -14 -1 0 5 18 17 39 25 22 9 42 21 45 26 4 5 15 8 26 6 12 -2 18 0
15 5 -7 12 26 29 45 22 8 -2 12 -1 8 3 -4 4 3 16 15 25 16 13 24 15 29 7 5 -8
8 -6 8 6 0 10 5 15 10 12 6 -4 8 -10 5 -15 -3 -5 -1 -11 4 -15 6 -3 8 3 6 14
-5 26 38 54 68 46 17 -5 19 -4 7 4 -18 12 -13 17 24 27 21 5 27 4 22 -5 -4 -6
-12 -8 -18 -5 -7 5 -8 2 -4 -5 6 -9 12 -9 25 3 10 9 20 13 24 10 3 -3 10 5 17
18 9 19 9 21 -2 8 -15 -17 -38 -24 -38 -12 0 14 48 33 55 21 4 -5 15 -7 25 -4
12 4 19 -1 23 -16 3 -11 10 -18 15 -15 6 3 12 -1 16 -9 6 -17 26 -20 26 -4 0
5 -4 7 -10 4 -6 -3 -10 -2 -10 4 0 5 5 11 10 13 6 2 1 9 -11 16 -12 8 -18 9
-15 3 4 -5 2 -12 -3 -15 -5 -3 -11 4 -14 15 -4 16 -10 19 -27 14 -17 -5 -21
-3 -18 6 3 8 13 13 23 11 12 -2 15 1 9 10 -4 8 -3 10 2 5 5 -5 9 -13 9 -19 0
-6 8 -12 18 -14 24 -3 48 -24 41 -35 -3 -5 3 -9 13 -9 19 0 80 -58 76 -72 -2
-4 4 -8 12 -8 8 0 15 -4 15 -10 0 -13 -20 -8 -40 10 -11 10 -13 18 -6 23 6 5
0 5 -14 2 -17 -4 -21 -3 -12 3 11 7 10 11 -4 16 -9 3 -19 4 -22 1 -3 -3 0 -5
7 -5 7 0 9 -4 6 -10 -3 -5 5 -15 19 -21 30 -14 42 -39 19 -39 -9 0 -14 -3 -10
-6 3 -4 12 -4 19 -2 7 3 16 5 19 4 3 0 14 6 24 14 17 14 18 14 6 -8 -15 -27
-7 -42 12 -22 9 10 9 11 0 6 -18 -10 -16 -1 3 14 8 8 14 9 12 4 -2 -5 0 -9 3
-9 4 0 16 -8 26 -18 11 -9 24 -14 28 -10 5 5 3 0 -4 -9 -12 -17 -8 -23 12 -19
5 1 6 -3 2 -9 -3 -6 -11 -8 -16 -5 -15 10 -10 -2 8 -16 9 -8 14 -9 10 -3 -4 7
-1 14 6 17 15 6 53 -20 44 -30 -4 -3 -14 2 -22 13 -13 17 -14 17 -15 2 0 -10
5 -18 11 -18 5 0 8 -4 5 -8 -2 -4 4 -8 15 -8 10 0 19 4 19 10 0 5 14 -5 30
-23 17 -17 35 -31 41 -31 5 0 7 -5 4 -10 -5 -8 -11 -8 -19 -1 -7 6 -16 7 -20
3 -5 -4 -6 2 -4 13 2 13 -3 20 -12 20 -8 0 -20 4 -27 8 -6 4 -15 2 -19 -5 -4
-7 -4 -10 1 -6 4 4 14 0 21 -10 8 -10 13 -12 14 -4 0 6 4 12 10 12 5 0 7 -6 4
-14 -7 -19 26 -50 39 -37 22 22 30 10 9 -12 -12 -13 -22 -27 -22 -32 0 -5 7 1
16 13 15 22 44 30 44 12 0 -5 -6 -10 -14 -10 -20 0 -29 -17 -15 -26 7 -4 9 -3
6 3 -3 5 9 15 28 20 36 11 55 2 55 -27 -1 -9 -6 -6 -15 10 -12 22 -14 23 -20
8 -4 -10 -11 -15 -16 -12 -5 3 -6 -2 -3 -11 6 -14 8 -14 21 2 14 17 14 17 10
-5 -3 -12 -1 -20 3 -17 5 3 16 -5 24 -17 9 -12 16 -18 16 -12 0 5 -6 16 -12
23 -11 11 -10 14 0 18 6 3 9 10 6 15 -4 7 -2 8 4 4 6 -4 8 -14 5 -23 -4 -10
-2 -14 5 -9 6 3 15 -2 21 -11 8 -14 11 -15 11 -3 0 8 7 3 16 -13 8 -16 20 -25
26 -21 7 4 8 3 4 -4 -4 -7 -2 -12 5 -12 8 0 8 -4 1 -13 -8 -10 -6 -13 7 -13
10 0 18 5 17 11 -2 5 -1 7 1 2 3 -4 9 -5 14 -2 5 4 6 -1 3 -9 -6 -15 5 -20 34
-17 15 2 16 -15 0 -25 -7 -5 -8 -3 -3 6 5 9 4 11 -3 6 -7 -4 -18 -4 -24 1 -16
9 -54 16 -46 7 3 -3 13 -6 21 -8 8 -1 22 -8 31 -15 14 -12 19 -11 34 2 11 11
22 13 32 7 8 -5 17 -7 21 -4 4 2 13 -9 20 -25 12 -26 14 -28 26 -13 7 10 12
22 13 27 0 6 -4 4 -9 -4 -10 -15 -31 -7 -30 12 0 8 2 8 6 -1 4 -10 8 -10 19
-1 11 9 15 8 20 -5 3 -9 10 -13 15 -10 5 3 6 11 2 17 -4 7 0 6 10 -2 20 -16
23 -25 5 -15 -7 4 -9 3 -5 -1 13 -15 38 -14 44 1 3 8 13 14 22 14 14 0 14 -2
1 -11 -13 -9 -13 -10 0 -6 8 2 14 12 14 21 -2 16 8 20 35 17 8 -2 10 3 6 11
-6 10 -5 11 6 1 7 -7 18 -13 23 -13 6 0 4 5 -4 10 -13 8 -12 12 4 27 19 17 19
17 6 -2 -8 -11 -10 -17 -6 -13 5 4 16 2 25 -4 13 -10 14 -10 5 1 -7 7 -9 21
-7 32 6 20 6 20 41 24 12 1 26 6 30 10 4 5 -1 5 -10 2 -10 -3 -20 -2 -23 2 -7
12 24 23 38 14 7 -4 5 2 -3 12 -14 17 -13 18 3 12 9 -3 17 -2 17 4 0 6 5 7 10
4 9 -5 15 16 11 38 -1 5 3 6 9 2 6 -3 8 -11 5 -16 -4 -5 -1 -9 5 -9 7 0 10 6
7 13 -2 6 0 20 5 30 7 14 13 16 23 7 11 -9 13 -7 9 12 -2 13 -2 17 2 11 10
-22 22 -14 17 10 -4 18 -3 19 6 7 9 -13 11 -13 11 3 0 15 18 22 43 18 5 -1 6
3 2 8 -3 6 -13 8 -23 5 -14 -5 -15 -4 -2 5 8 6 23 11 33 11 9 0 17 5 17 11 0
5 -6 7 -12 3 -9 -5 -9 -2 1 9 7 9 19 17 25 17 6 0 4 -5 -4 -11 -13 -9 -13 -10
0 -6 8 2 14 11 12 21 -3 15 12 21 48 17 13 -2 13 -1 0 8 -8 5 -19 7 -25 4 -5
-4 13 18 40 48 28 30 53 50 56 45 4 -5 12 -5 18 -2 6 4 14 0 17 -8 3 -9 11
-13 17 -9 6 3 7 1 3 -6 -8 -13 37 -61 56 -61 7 0 -3 11 -21 24 -19 14 -28 27
-22 31 6 3 11 1 11 -5 0 -6 5 -8 10 -5 6 4 9 1 8 -7 -2 -7 5 -12 14 -12 10 1
16 -2 13 -6 -3 -5 5 -12 17 -16 13 -4 31 -12 41 -19 16 -11 16 -13 2 -19 -9
-3 -14 -2 -11 3 3 4 -6 13 -19 19 -14 6 -24 8 -24 4 3 -18 -2 -26 -10 -14 -7
11 -9 11 -14 -1 -6 -15 15 -18 29 -4 13 12 22 7 28 -16 4 -15 8 -18 14 -10 9
15 54 13 48 -2 -5 -13 51 -81 60 -72 4 4 2 7 -4 7 -7 0 -12 5 -12 12 0 6 3 8
7 5 3 -4 12 -2 18 3 8 7 19 4 33 -9 24 -21 31 -41 7 -21 -10 9 -15 9 -15 1 0
-6 5 -11 11 -11 6 0 9 -8 7 -18 -3 -12 0 -19 9 -19 8 0 11 7 8 18 -8 23 10 33
28 15 8 -8 17 -13 19 -10 3 3 3 -7 1 -21 -3 -15 -1 -25 6 -25 6 0 10 3 10 8
-5 27 3 31 23 12 12 -11 25 -20 30 -20 4 0 8 -5 8 -11 0 -8 -4 -8 -12 -2 -9 7
-19 4 -30 -9 -19 -20 -10 -26 10 -6 6 6 15 8 19 4 4 -4 1 -11 -7 -16 -10 -6
-11 -10 -3 -10 7 0 17 9 23 20 10 20 12 20 34 3 25 -19 25 -36 1 -27 -8 4 -13
10 -10 14 3 5 0 12 -7 16 -7 4 -10 4 -6 -1 4 -4 2 -15 -5 -23 -10 -13 -9 -14
2 -7 11 6 13 4 7 -10 -5 -15 -4 -16 9 -5 10 8 15 9 15 1 0 -6 5 -11 11 -11 5
0 7 5 4 10 -3 6 5 10 18 10 14 0 27 -7 31 -15 3 -9 12 -12 23 -9 10 3 7 -1 -6
-9 -20 -12 -21 -15 -6 -20 24 -10 32 -8 15 3 -12 8 -11 10 6 10 26 0 34 -8 27
-25 -2 -8 -12 -11 -21 -8 -18 7 -17 5 12 -17 11 -8 17 -10 13 -4 -4 7 0 17 9
24 13 12 14 10 10 -14 -4 -21 -2 -25 7 -17 8 6 18 6 27 1 8 -5 24 -3 41 5 14
8 29 11 33 8 11 -11 167 -22 160 -12 -2 4 3 12 11 19 18 15 19 43 4 72 -9 16
-8 19 3 12 10 -6 11 -5 2 7 -13 16 -28 66 -27 91 0 10 -4 18 -9 18 -6 0 -8 9
-5 20 3 11 0 20 -5 20 -6 0 -5 6 2 15 10 12 9 16 -2 20 -7 3 -15 13 -16 23 -3
31 -7 47 -15 59 -5 8 -3 12 5 10 7 -2 10 -2 5 1 -4 2 -12 13 -18 24 -8 14 -8
18 0 14 5 -4 4 6 -4 21 -11 20 -11 30 -3 41 9 10 8 12 -1 10 -8 -2 -15 8 -17
22 -2 14 -7 32 -10 40 -13 30 -12 59 2 71 8 6 14 8 14 4 0 -4 12 0 26 10 18
12 24 13 20 4 -4 -8 1 -4 10 8 9 13 21 23 26 23 5 0 16 7 24 15 9 8 12 15 7
15 -4 0 4 8 17 17 14 10 29 17 33 15 5 -1 6 2 2 8 -5 8 -11 7 -21 -1 -13 -11
-13 -9 -3 14 7 15 16 24 22 20 6 -4 7 -1 1 8 -9 15 -13 31 -16 64 -1 11 -10
26 -21 33 -15 12 -16 16 -5 30 10 12 10 14 1 8 -8 -4 -13 -1 -13 9 0 10 -5 13
-12 9 -7 -5 -9 -2 -5 8 7 20 -11 38 -32 30 -14 -5 -14 -3 -3 10 10 13 10 18 1
24 -8 5 -9 3 -4 -6 6 -9 4 -11 -4 -6 -7 5 -10 15 -7 23 3 8 1 11 -4 8 -6 -3
-10 -1 -10 5 0 6 -4 9 -9 6 -4 -3 -13 6 -19 19 -7 14 -17 25 -23 25 -8 0 -8 5
1 16 8 8 9 14 4 13 -18 -3 -37 1 -31 8 4 3 -4 16 -18 29 -22 20 -22 23 -6 21
11 -1 18 -4 15 -8 -2 -4 1 -11 8 -15 7 -4 10 -4 6 1 -4 4 -2 15 5 23 6 9 7 13
2 10 -6 -4 -17 -3 -25 3 -12 7 -10 9 9 9 16 0 21 4 17 15 -3 8 -2 14 2 12 10
-3 53 29 47 35 -3 3 6 5 21 4 19 -1 28 4 30 18 4 31 22 42 45 28 19 -12 19
-12 4 12 -16 25 -16 25 12 20 21 -3 24 -2 13 5 -13 9 -13 12 -1 23 12 11 13
10 7 -2 -4 -8 1 -4 12 9 13 16 24 21 33 16 12 -8 12 -6 0 8 -12 16 -11 19 18
30 17 6 31 15 31 20 0 4 -6 5 -12 1 -8 -4 -10 -3 -5 2 5 5 12 10 15 10 37 8
52 18 40 25 -10 7 -8 9 7 10 11 1 23 1 26 1 4 -1 5 7 2 17 -6 22 12 37 23 20
4 -8 3 -9 -4 -5 -8 5 -10 1 -5 -9 4 -13 8 -14 14 -4 4 7 4 20 -1 29 -6 12 -5
17 5 17 8 0 11 -5 8 -10 -4 -6 -1 -7 6 -2 7 4 10 16 8 27 -3 11 -3 17 0 14 4
-3 13 4 21 16 15 20 16 20 30 2 9 -12 12 -13 10 -4 -3 9 10 29 30 48 19 18 32
35 29 39 -4 3 -2 14 4 24 7 14 6 19 -2 19 -8 0 -8 4 -1 13 9 10 6 17 -8 30
-23 19 -26 43 -7 50 6 3 3 6 -9 6 -11 1 -21 7 -21 15 0 8 7 12 16 10 9 -3 6 1
-7 8 -15 7 -22 18 -19 29 3 10 2 18 -2 17 -18 -2 -22 3 -12 16 9 11 9 16 0 22
-8 5 -9 3 -4 -6 6 -9 4 -11 -4 -6 -7 5 -10 14 -7 22 3 8 0 14 -5 14 -6 0 -9 9
-6 20 3 10 2 19 -2 18 -19 -2 -24 3 -11 12 13 8 12 10 -3 10 -10 0 -15 5 -12
10 4 6 12 7 18 3 7 -4 6 0 -2 10 -15 19 -26 23 -15 5 4 -7 3 -8 -5 -4 -6 4
-11 19 -11 34 0 45 -3 61 -12 56 -4 -3 -3 -15 3 -27 9 -17 9 -19 0 -11 -6 6
-13 20 -15 31 -3 11 -14 40 -26 63 -12 23 -22 54 -24 68 -1 17 -7 26 -16 24
-11 -3 -11 0 1 14 9 12 9 15 2 10 -13 -7 -16 2 -14 39 1 11 -10 31 -24 43 -16
14 -24 29 -21 38 3 9 1 12 -4 9 -9 -5 -15 23 -11 48 0 4 -3 7 -9 7 -5 0 -10 8
-10 18 0 10 -5 23 -12 30 -6 6 -8 15 -4 19 4 4 12 1 17 -7 9 -12 10 -11 5 4
-8 23 19 56 48 57 18 1 18 2 3 6 -16 4 -14 9 13 35 27 25 34 27 48 17 14 -11
15 -11 5 1 -15 17 -17 44 -3 35 6 -3 10 1 10 9 0 9 5 16 11 16 5 0 7 -5 3 -12
-4 -7 -3 -8 5 -4 6 4 9 11 6 16 -8 13 50 72 60 62 5 -4 5 -2 2 4 -3 6 3 21 14
33 16 17 18 24 7 34 -7 6 -19 12 -25 13 -29 2 -34 4 -29 12 3 5 -5 8 -17 7
-25 -2 -108 26 -102 34 1 3 -13 6 -32 7 -19 0 -38 6 -42 13 -5 7 -11 12 -15
11 -16 -4 -73 14 -90 29 -15 13 -18 13 -11 1 5 -9 -1 -7 -15 5 -13 11 -20 15
-17 8 5 -8 0 -9 -22 0 -17 6 -28 14 -25 18 2 4 0 10 -5 13 -5 4 -15 23 -22 44
-6 20 -17 40 -23 44 -7 5 -6 8 3 8 11 0 10 4 -5 16 -10 8 -12 13 -4 9 9 -4 8
-1 -3 8 -14 11 -15 16 -5 20 10 4 10 6 1 6 -7 1 -13 6 -13 12 0 5 5 7 12 3 7
-4 8 -3 4 4 -4 6 -14 8 -22 5 -14 -5 -14 -3 -6 14 9 16 7 24 -6 39 -32 36 -47
58 -34 50 6 -4 12 -2 12 3 0 6 -5 11 -11 11 -6 0 -8 7 -5 16 3 8 2 12 -3 9 -5
-3 -12 -1 -16 5 -3 5 2 10 12 11 14 0 13 2 -6 10 -15 6 -21 15 -17 24 3 8 0
15 -6 15 -7 0 -6 5 2 15 11 13 10 14 -4 9 -12 -5 -15 -2 -9 12 5 13 3 15 -8 9
-11 -6 -12 -5 -1 6 6 7 12 18 12 24 0 5 -5 3 -11 -5 -9 -12 -10 -11 -6 7 4 17
1 20 -12 16 -9 -4 -13 -3 -9 2 4 4 2 15 -5 23 -6 9 -7 13 -2 10 6 -4 11 2 11
12 0 13 -4 16 -12 9 -8 -6 -13 -3 -17 10 -3 15 -1 18 12 14 9 -3 5 2 -7 12
-15 11 -22 24 -19 36 3 10 1 17 -5 16 -5 -1 -15 15 -22 36 -8 20 -20 45 -27
54 -8 9 -9 14 -3 10 7 -4 14 0 17 8 4 9 1 12 -7 9 -7 -3 -19 2 -26 11 -7 8 -8
15 -3 15 5 0 10 7 10 15 0 8 -4 12 -8 10 -6 -5 -14 7 -18 30 -2 6 -10 19 -19
30 -9 11 -10 14 -2 8 24 -22 30 -14 7 10 -13 14 -30 21 -42 18 -18 -4 -19 -3
-5 14 14 17 14 18 -5 8 -15 -9 -22 -8 -33 5 -12 15 -13 15 -7 -3 5 -15 3 -17
-6 -8 -6 6 -18 9 -25 6 -9 -3 -14 2 -14 13 0 16 -2 17 -10 4 -8 -13 -10 -12
-10 3 0 10 -5 15 -10 12 -6 -4 -7 -12 -3 -18 4 -7 0 -6 -10 2 -9 7 -14 18 -10
24 3 6 1 7 -6 3 -6 -4 -9 -12 -6 -17 4 -5 1 -9 -4 -9 -6 0 -11 4 -11 10 0 5
-6 7 -14 4 -8 -3 -17 0 -21 6 -5 8 -10 8 -20 0 -11 -10 -13 -8 -10 9 2 11 -1
24 -7 27 -6 4 -8 3 -5 -3 4 -6 1 -16 -7 -22 -10 -9 -17 -7 -27 6 -13 17 -13
17 6 3 15 -11 17 -11 8 0 -14 15 -56 22 -47 8 3 -4 0 -8 -5 -8 -6 0 -11 4 -11
9 0 5 -8 8 -17 7 -10 -2 -24 4 -31 13 -11 14 -11 14 -6 -2 5 -13 2 -16 -10
-11 -9 3 -16 10 -16 15 0 5 -5 9 -11 9 -5 0 -7 -4 -4 -10 3 -5 3 -10 -2 -11
-4 0 -16 -2 -26 -4 -9 -2 -15 1 -11 6 3 5 11 6 17 3 7 -4 9 -3 4 1 -4 5 -18
11 -30 13 -12 2 -28 5 -35 6 -8 1 -18 9 -23 17 -7 11 -9 11 -9 0 0 -8 -8 -4
-20 10 -11 13 -19 19 -18 12 2 -6 -1 -11 -7 -11 -5 0 -9 5 -7 11 2 6 -3 6 -12
-2 -9 -8 -16 -8 -20 -2 -4 6 -14 7 -23 4 -12 -5 -14 -3 -8 8 8 12 6 12 -8 0
-11 -8 -17 -9 -17 -3 0 6 -7 9 -15 6 -10 -4 -15 0 -16 12 0 18 -1 17 -9 -1 -5
-11 -9 -14 -9 -7 -1 7 -5 10 -11 7 -5 -3 -10 -1 -10 5 0 6 -4 9 -9 5 -5 -3
-13 0 -17 6 -4 8 -9 7 -15 -2 -7 -11 -9 -11 -9 -1 0 7 -4 11 -9 8 -15 -10 -61
12 -61 29 0 9 -4 13 -10 10 -5 -3 -10 3 -10 14 0 12 -4 21 -9 21 -5 0 -11 7
-14 14 -4 11 -1 14 11 10 9 -2 7 0 -4 7 -28 14 -48 56 -31 63 7 2 4 5 -6 5
-10 1 -16 5 -13 10 4 5 2 11 -3 13 -15 5 -81 149 -74 161 3 5 1 7 -4 4 -13 -8
-26 20 -16 35 3 6 2 8 -4 5 -9 -6 -80 121 -75 135 1 5 -2 8 -8 8 -5 0 -10 7
-10 15 0 8 -5 15 -11 15 -8 0 -7 5 1 16 8 9 9 14 2 12 -6 -2 -17 5 -24 14 -11
14 -16 15 -30 4z m-1138 -358 c0 -4 -7 -8 -15 -8 -8 0 -15 4 -15 8 0 5 7 9 15
9 8 0 15 -4 15 -9z m-303 -583 c0 -8 -4 -12 -9 -9 -4 3 -8 9 -8 15 0 5 4 9 8
9 5 0 9 -7 9 -15z m-1097 -495 c0 -5 -2 -10 -4 -10 -3 0 -8 5 -11 10 -3 6 -1
10 4 10 6 0 11 -4 11 -10z m4061 -57 c13 -16 12 -17 -3 -4 -17 13 -22 21 -14
21 2 0 10 -8 17 -17z m363 -889 c3 -8 2 -12 -4 -9 -6 3 -10 10 -10 16 0 14 7
11 14 -7z m-3573 -954 c5 0 9 -5 9 -10 0 -6 -11 -3 -25 6 -14 9 -25 21 -25 26
0 5 7 2 16 -6 8 -9 20 -16 25 -16z m119 -125 c-10 -12 -10 -15 1 -15 11 0 11
-2 1 -8 -7 -5 -10 -16 -6 -28 6 -18 6 -18 -10 1 l-16 20 6 -20 c5 -19 5 -19
-6 -2 -10 15 -8 23 11 43 25 26 39 33 19 9z m3305 -335 c3 -5 1 -10 -4 -10 -6
0 -11 5 -11 10 0 6 2 10 4 10 3 0 8 -4 11 -10z m-675 -685 c0 -9 6 -12 15 -9
8 4 15 2 15 -4 0 -6 -6 -9 -12 -8 -22 3 -38 17 -38 32 0 8 5 12 10 9 6 -3 10
-13 10 -20z m-2900 -15 c0 -5 -5 -10 -11 -10 -5 0 -7 5 -4 10 3 6 8 10 11 10
2 0 4 -4 4 -10z m3360 -262 c0 -5 -8 -4 -19 1 -10 6 -22 7 -26 3 -5 -4 -5 -2
-2 5 8 13 47 6 47 -9z m-3440 -33 c0 -8 -4 -15 -10 -15 -5 0 -7 7 -4 15 4 8 8
15 10 15 2 0 4 -7 4 -15z"/>
<path d="M2842 4934 c-7 -8 -8 -14 -3 -14 10 0 25 19 20 25 -2 1 -10 -3 -17
-11z"/>
<path d="M2795 4891 c-3 -5 -2 -12 3 -15 5 -3 9 1 9 9 0 17 -3 19 -12 6z"/>
<path d="M2736 4835 c-9 -26 -7 -32 5 -12 6 10 9 21 6 23 -2 3 -7 -2 -11 -11z"/>
<path d="M1813 4755 c0 -8 4 -12 9 -9 4 3 8 9 8 15 0 5 -4 9 -8 9 -5 0 -9 -7
-9 -15z"/>
<path d="M2036 4762 c-3 -5 1 -9 9 -9 8 0 12 4 9 9 -3 4 -7 8 -9 8 -2 0 -6 -4
-9 -8z"/>
<path d="M2674 4693 c2 -10 6 -17 10 -16 15 3 16 11 2 22 -12 10 -14 9 -12 -6z"/>
<path d="M2636 4678 c3 -5 10 -6 15 -3 13 9 11 12 -6 12 -8 0 -12 -4 -9 -9z"/>
<path d="M3150 4676 c0 -2 8 -10 18 -17 15 -13 16 -12 3 4 -13 16 -21 21 -21
13z"/>
<path d="M1730 4640 c-6 -11 -8 -20 -6 -20 3 0 10 9 16 20 6 11 8 20 6 20 -3
0 -10 -9 -16 -20z"/>
<path d="M1686 4602 c-3 -5 1 -9 9 -9 8 0 15 4 15 9 0 4 -4 8 -9 8 -6 0 -12
-4 -15 -8z"/>
<path d="M1697 4563 c3 -7 6 -13 8 -13 2 0 5 6 8 13 3 8 -1 14 -8 14 -7 0 -11
-6 -8 -14z"/>
<path d="M1626 4562 c-3 -5 1 -9 9 -9 8 0 12 4 9 9 -3 4 -7 8 -9 8 -2 0 -6 -4
-9 -8z"/>
<path d="M1627 4443 c3 -7 0 -19 -6 -27 -6 -7 -8 -16 -4 -19 3 -4 -1 -7 -10
-7 -18 0 -23 -15 -8 -25 6 -3 15 4 21 15 6 11 8 20 5 20 -4 0 3 13 13 28 19
26 19 28 2 28 -10 0 -16 -6 -13 -13z"/>
<path d="M1560 4360 c8 -5 20 -10 25 -10 6 0 3 5 -5 10 -8 5 -19 10 -25 10 -5
0 -3 -5 5 -10z"/>
<path d="M1535 4340 c3 -5 8 -10 11 -10 2 0 4 5 4 10 0 6 -5 10 -11 10 -5 0
-7 -4 -4 -10z"/>
<path d="M1516 4267 c3 -10 9 -15 12 -12 3 3 0 11 -7 18 -10 9 -11 8 -5 -6z"/>
<path d="M1506 4207 c3 -10 9 -15 12 -12 3 3 0 11 -7 18 -10 9 -11 8 -5 -6z"/>
<path d="M1476 4202 c-3 -5 1 -9 9 -9 8 0 12 4 9 9 -3 4 -7 8 -9 8 -2 0 -6 -4
-9 -8z"/>
<path d="M1495 4170 c-4 -6 -10 -8 -14 -6 -4 3 -8 -1 -8 -8 0 -16 22 -15 38 1
7 7 7 13 1 17 -6 3 -13 2 -17 -4z"/>
<path d="M1435 4090 c-3 -5 -1 -10 4 -10 6 0 11 5 11 10 0 6 -2 10 -4 10 -3 0
-8 -4 -11 -10z"/>
<path d="M1400 4040 c-9 -6 -10 -10 -3 -10 6 0 15 5 18 10 8 12 4 12 -15 0z"/>
<path d="M1438 4043 c6 -2 9 -10 6 -15 -4 -7 -2 -8 4 -4 18 11 14 26 -5 25
-11 0 -13 -3 -5 -6z"/>
<path d="M1391 4007 c-8 -10 -7 -14 2 -14 8 0 14 6 14 14 0 7 -1 13 -2 13 -2
0 -8 -6 -14 -13z"/>
<path d="M910 4000 c0 -5 5 -10 11 -10 5 0 7 5 4 10 -3 6 -8 10 -11 10 -2 0
-4 -4 -4 -10z"/>
<path d="M1306 3982 c-3 -4 4 -9 15 -9 23 -2 25 3 4 10 -8 4 -16 3 -19 -1z"/>
<path d="M160 3894 c-11 -12 -11 -15 1 -12 9 2 13 -4 11 -14 -2 -10 1 -18 5
-18 5 0 9 9 10 20 1 11 -3 20 -8 20 -6 0 -7 5 -4 10 10 16 -1 12 -15 -6z"/>
<path d="M135 3769 c-4 -6 -5 -12 -2 -15 2 -3 7 2 10 11 7 17 1 20 -8 4z"/>
<path d="M230 3736 l-25 -14 26 1 c14 1 26 8 26 15 0 6 -1 12 -1 12 -1 -1 -12
-7 -26 -14z"/>
<path d="M245 3697 c38 -18 60 -43 45 -52 -14 -9 -32 4 -24 17 4 7 2 8 -4 4
-14 -9 -4 -36 13 -36 8 0 17 5 20 11 4 6 13 8 20 5 8 -3 12 2 10 12 -1 10 -9
16 -19 14 -9 -2 -15 2 -14 9 2 6 -4 13 -12 15 -8 1 -26 6 -40 9 -21 5 -20 4 5
-8z"/>
<path d="M227 3679 c7 -7 15 -10 18 -7 3 3 -2 9 -12 12 -14 6 -15 5 -6 -5z"/>
<path d="M266 3558 c3 -5 10 -6 15 -3 13 9 11 12 -6 12 -8 0 -12 -4 -9 -9z"/>
<path d="M340 3546 c0 -2 8 -10 18 -17 15 -13 16 -12 3 4 -13 16 -21 21 -21
13z"/>
<path d="M377 3529 c4 -13 8 -18 11 -10 2 7 -1 18 -6 23 -8 8 -9 4 -5 -13z"/>
<path d="M453 3513 c4 -6 1 -14 -5 -16 -10 -4 -10 -6 0 -6 7 -1 10 -6 7 -11
-4 -6 -3 -10 2 -9 19 3 33 -2 33 -12 0 -5 -4 -7 -10 -4 -5 3 -10 2 -10 -3 0
-15 32 -24 44 -12 8 8 6 9 -5 5 -13 -5 -16 -1 -14 18 2 17 -2 24 -13 23 -9 0
-17 4 -17 11 0 6 -4 15 -9 20 -5 4 -6 3 -3 -4z"/>
<path d="M360 3500 c8 -5 20 -10 25 -10 6 0 3 5 -5 10 -8 5 -19 10 -25 10 -5
0 -3 -5 5 -10z"/>
<path d="M415 3470 c-3 -6 1 -7 9 -4 18 7 21 14 7 14 -6 0 -13 -4 -16 -10z"/>
<path d="M370 3459 c0 -5 5 -7 10 -4 6 3 10 8 10 11 0 2 -4 4 -10 4 -5 0 -10
-5 -10 -11z"/>
<path d="M440 3449 c0 -5 -4 -7 -10 -4 -14 9 -12 -1 3 -13 10 -8 13 -6 14 9 1
10 0 19 -3 19 -2 0 -4 -5 -4 -11z"/>
<path d="M514 3418 c-3 -5 -1 -15 5 -21 9 -9 11 -8 6 5 -5 13 -2 15 14 11 12
-3 21 -3 21 0 0 10 -40 15 -46 5z"/>
<path d="M477 3413 c-3 -5 4 -15 16 -23 21 -12 21 -12 7 6 -8 10 -15 20 -16
22 -1 2 -4 -1 -7 -5z"/>
<path d="M430 3406 c0 -2 7 -7 16 -10 8 -3 12 -2 9 4 -6 10 -25 14 -25 6z"/>
<path d="M543 3388 c-5 -7 -13 -20 -17 -28 -6 -12 -4 -11 6 1 7 9 16 17 21 17
8 2 11 12 4 18 -2 2 -9 -1 -14 -8z"/>
<path d="M564 3355 c-4 -8 -11 -12 -18 -8 -6 3 -7 2 -3 -2 14 -16 33 -13 33 6
0 23 -5 24 -12 4z"/>
<path d="M590 3360 c0 -7 8 -19 18 -27 16 -14 16 -14 0 -9 -10 3 -18 1 -18 -4
0 -5 11 -9 25 -8 l24 2 -22 26 c-12 14 -23 27 -24 29 -2 2 -3 -2 -3 -9z"/>
<path d="M566 3302 c-3 -5 1 -9 9 -9 8 0 12 4 9 9 -3 4 -7 8 -9 8 -2 0 -6 -4
-9 -8z"/>
<path d="M4666 3282 c-3 -5 1 -9 9 -9 8 0 12 4 9 9 -3 4 -7 8 -9 8 -2 0 -6 -4
-9 -8z"/>
<path d="M675 3240 c-16 -7 -17 -9 -3 -9 9 -1 18 -7 21 -13 3 -7 4 -3 4 10 -1
12 -1 22 -2 21 0 0 -9 -4 -20 -9z"/>
<path d="M706 3204 c-10 -26 -7 -29 10 -8 15 19 15 18 11 -3 -4 -19 -2 -21 13
-13 13 7 21 7 25 0 3 -5 -2 -10 -12 -11 -14 0 -13 -2 5 -9 12 -5 25 -16 28
-25 3 -8 9 -13 14 -10 4 2 13 -7 20 -20 7 -13 17 -22 22 -19 4 3 8 0 8 -5 0
-6 -4 -11 -10 -11 -5 0 -10 -4 -10 -10 0 -16 17 -12 24 6 4 11 -6 28 -30 50
-19 19 -32 34 -28 34 4 0 -3 11 -16 25 -12 13 -26 22 -30 20 -5 -3 -10 2 -14
10 -7 20 -22 19 -30 -1z"/>
<path d="M615 3199 c-3 -4 2 -6 10 -5 21 3 28 13 10 13 -9 0 -18 -4 -20 -8z"/>
<path d="M680 3165 c0 -2 6 -8 13 -14 10 -8 14 -7 14 2 0 8 -6 14 -14 14 -7 0
-13 -1 -13 -2z"/>
<path d="M736 3142 c-2 -4 -1 -14 4 -22 7 -11 9 -9 7 8 -1 24 -3 26 -11 14z"/>
<path d="M761 3124 c0 -11 3 -14 6 -6 3 7 2 16 -1 19 -3 4 -6 -2 -5 -13z"/>
<path d="M775 3100 c-3 -6 2 -13 12 -17 10 -3 21 -8 25 -10 4 -2 5 3 2 11 -3
9 -12 12 -21 9 -11 -4 -14 -2 -9 5 4 7 5 12 2 12 -3 0 -8 -5 -11 -10z"/>
<path d="M799 3033 c-12 -16 -12 -17 2 -6 9 7 20 9 24 5 5 -4 5 -1 1 6 -9 16
-11 15 -27 -5z"/>
<path d="M815 3009 c-4 -6 -5 -12 -2 -15 2 -3 7 2 10 11 7 17 1 20 -8 4z"/>
<path d="M833 2987 c0 -8 6 -14 14 -14 9 0 10 4 2 14 -6 7 -12 13 -14 13 -1 0
-2 -6 -2 -13z"/>
<path d="M839 2933 c-13 -16 -12 -17 4 -4 9 7 17 15 17 17 0 8 -8 3 -21 -13z"/>
<path d="M4760 2866 c0 -2 7 -7 16 -10 8 -3 12 -2 9 4 -6 10 -25 14 -25 6z"/>
<path d="M796 2838 c3 -5 10 -6 15 -3 13 9 11 12 -6 12 -8 0 -12 -4 -9 -9z"/>
<path d="M802 2784 c-14 -16 -5 -18 17 -5 7 5 9 11 5 14 -5 3 -15 -1 -22 -9z"/>
<path d="M770 2746 c0 -4 6 -14 14 -21 12 -12 15 -12 21 2 3 10 3 14 -1 10 -4
-4 -13 -2 -21 4 -7 6 -13 8 -13 5z"/>
<path d="M750 2686 c0 -2 7 -7 16 -10 8 -3 12 -2 9 4 -6 10 -25 14 -25 6z"/>
<path d="M719 2668 c-5 -18 -6 -38 -1 -34 7 8 12 36 6 36 -2 0 -4 -1 -5 -2z"/>
<path d="M4870 2520 c0 -5 5 -10 11 -10 5 0 7 5 4 10 -3 6 -8 10 -11 10 -2 0
-4 -4 -4 -10z"/>
<path d="M660 2489 c0 -5 5 -7 10 -4 6 3 10 8 10 11 0 2 -4 4 -10 4 -5 0 -10
-5 -10 -11z"/>
<path d="M4880 2496 c0 -2 8 -10 18 -17 15 -13 16 -12 3 4 -13 16 -21 21 -21
13z"/>
<path d="M610 2446 c0 -2 7 -7 16 -10 8 -3 12 -2 9 4 -6 10 -25 14 -25 6z"/>
<path d="M605 2419 c-4 -6 -5 -12 -2 -15 2 -3 7 2 10 11 7 17 1 20 -8 4z"/>
<path d="M576 2397 c3 -10 9 -15 12 -12 3 3 0 11 -7 18 -10 9 -11 8 -5 -6z"/>
<path d="M583 2333 c-15 -5 -17 -23 -4 -23 5 0 11 7 15 15 3 8 4 15 3 14 -1 0
-8 -3 -14 -6z"/>
<path d="M566 2292 c-2 -4 4 -8 14 -8 10 0 16 4 14 8 -3 4 -9 8 -14 8 -5 0
-11 -4 -14 -8z"/>
<path d="M516 2222 c-3 -5 1 -9 9 -9 8 0 12 4 9 9 -3 4 -7 8 -9 8 -2 0 -6 -4
-9 -8z"/>
<path d="M575 2130 c-3 -5 -2 -18 4 -27 7 -14 9 -12 8 10 -2 30 -3 31 -12 17z"/>
<path d="M610 2120 c0 -5 5 -10 11 -10 5 0 7 5 4 10 -3 6 -8 10 -11 10 -2 0
-4 -4 -4 -10z"/>
<path d="M5050 2081 c0 -6 4 -13 10 -16 6 -3 7 1 4 9 -7 18 -14 21 -14 7z"/>
<path d="M653 2051 c0 -11 5 -18 9 -15 4 3 5 11 1 19 -7 21 -12 19 -10 -4z"/>
<path d="M793 2013 c-7 -3 -13 -9 -13 -15 0 -6 6 -6 15 2 15 12 21 4 16 -23
-1 -5 4 -5 10 -1 8 4 9 -1 4 -17 -9 -28 -3 -24 14 9 7 12 8 21 2 20 -5 -2 -16
4 -23 13 -7 9 -19 15 -25 12z"/>
<path d="M740 2002 c0 -4 10 -13 23 -21 22 -14 22 -14 3 8 -20 22 -26 25 -26
13z"/>
<path d="M875 1900 c3 -5 8 -10 11 -10 2 0 4 5 4 10 0 6 -5 10 -11 10 -5 0 -7
-4 -4 -10z"/>
<path d="M833 1875 c0 -8 4 -12 9 -9 5 3 6 10 3 15 -9 13 -12 11 -12 -6z"/>
<path d="M983 1869 c9 -6 14 -16 11 -22 -4 -7 -3 -8 1 -4 17 15 12 33 -9 34
-19 2 -19 1 -3 -8z"/>
<path d="M946 1844 c-6 -15 -4 -15 11 -3 10 7 20 15 22 16 2 2 -3 3 -11 3 -9
0 -19 -7 -22 -16z"/>
<path d="M989 1824 c6 -3 7 -12 4 -20 -3 -8 -1 -14 5 -14 14 0 8 33 -7 36 -6
1 -7 0 -2 -2z"/>
<path d="M1035 1789 c-4 -6 -5 -12 -2 -15 2 -3 7 2 10 11 7 17 1 20 -8 4z"/>
<path d="M1076 1791 c-23 -9 -30 -38 -10 -38 11 0 11 3 1 16 -10 12 -9 14 5 9
10 -4 19 -1 22 8 3 8 4 14 3 13 -1 0 -11 -4 -21 -8z"/>
<path d="M1086 1722 c-3 -5 1 -9 9 -9 8 0 15 4 15 9 0 4 -4 8 -9 8 -6 0 -12
-4 -15 -8z"/>
<path d="M1126 1702 c-3 -5 1 -9 9 -9 8 0 12 4 9 9 -3 4 -7 8 -9 8 -2 0 -6 -4
-9 -8z"/>
<path d="M4780 1690 c-8 -5 -10 -10 -5 -10 6 0 17 5 25 10 8 5 11 10 5 10 -5
0 -17 -5 -25 -10z"/>
<path d="M1221 1617 c2 -1 13 -9 24 -17 19 -14 19 -14 6 3 -7 9 -18 17 -24 17
-6 0 -8 -1 -6 -3z"/>
<path d="M1190 1601 c0 -6 4 -13 10 -16 6 -3 7 1 4 9 -7 18 -14 21 -14 7z"/>
<path d="M1284 1554 c-18 -14 -18 -15 4 -4 12 6 22 13 22 15 0 8 -5 6 -26 -11z"/>
<path d="M1274 1516 c1 -8 5 -18 8 -22 4 -3 5 1 4 10 -1 8 -5 18 -8 22 -4 3
-5 -1 -4 -10z"/>
<path d="M1303 1493 c0 -11 7 -20 14 -20 10 0 10 4 1 16 -7 9 -13 18 -15 20
-1 2 -1 -5 0 -16z"/>
<path d="M4574 1494 c-18 -14 -18 -15 4 -4 12 6 22 13 22 15 0 8 -5 6 -26 -11z"/>
<path d="M1273 1395 c0 -8 4 -15 9 -15 4 0 8 4 8 9 0 6 -4 12 -8 15 -5 3 -9
-1 -9 -9z"/>
<path d="M4590 1346 c0 -2 7 -7 16 -10 8 -3 12 -2 9 4 -6 10 -25 14 -25 6z"/>
<path d="M1254 1291 l0 -39 19 25 c11 13 17 27 13 30 -3 4 -6 1 -6 -5 0 -7 -5
-12 -11 -12 -5 0 -8 4 -5 8 2 4 1 13 -3 20 -4 7 -7 -5 -7 -27z"/>
<path d="M1206 1282 c-3 -5 1 -9 9 -9 8 0 12 4 9 9 -3 4 -7 8 -9 8 -2 0 -6 -4
-9 -8z"/>
<path d="M1234 1235 c1 -8 6 -18 11 -22 4 -4 5 -3 2 4 -4 6 -2 13 5 15 8 3 6
6 -4 10 -10 4 -15 2 -14 -7z"/>
<path d="M1213 1212 c0 -12 5 -22 9 -22 11 0 10 12 -2 30 -7 12 -9 10 -7 -8z"/>
<path d="M1176 1138 c3 -4 11 -5 19 -1 21 7 19 12 -4 10 -11 0 -18 -5 -15 -9z"/>
<path d="M1216 1134 c-5 -14 -4 -15 9 -4 17 14 19 20 6 20 -5 0 -12 -7 -15
-16z"/>
<path d="M1210 1099 c0 -5 -5 -7 -12 -3 -7 4 -8 3 -4 -5 4 -6 11 -9 16 -6 4 3
10 -1 13 -7 3 -7 4 -3 4 10 -1 21 -17 33 -17 11z"/>
<path d="M1190 1040 c0 -5 5 -10 11 -10 5 0 7 5 4 10 -3 6 -8 10 -11 10 -2 0
-4 -4 -4 -10z"/>
<path d="M1159 1013 c-12 -16 -12 -17 2 -6 9 7 20 9 24 5 5 -4 5 -1 1 6 -9 16
-11 15 -27 -5z"/>
<path d="M1135 961 c-3 -5 -2 -12 3 -15 5 -3 9 1 9 9 0 17 -3 19 -12 6z"/>
<path d="M1126 898 c3 -5 10 -6 15 -3 13 9 11 12 -6 12 -8 0 -12 -4 -9 -9z"/>
<path d="M4565 889 c-4 -6 -4 -13 -1 -16 3 -4 6 -1 6 7 0 10 4 10 18 -1 15
-13 16 -12 3 4 -16 20 -18 20 -26 6z"/>
<path d="M1096 878 c3 -5 10 -6 15 -3 13 9 11 12 -6 12 -8 0 -12 -4 -9 -9z"/>
<path d="M1097 818 c2 -5 10 -8 18 -8 8 0 16 3 18 8 3 4 -5 7 -18 7 -13 0 -21
-3 -18 -7z"/>
<path d="M1126 795 c-18 -14 -18 -14 1 -12 11 0 20 7 20 14 0 7 -1 13 -1 13
-1 0 -9 -7 -20 -15z"/>
<path d="M1093 771 c0 -11 5 -18 9 -15 4 3 5 11 1 19 -7 21 -12 19 -10 -4z"/>
<path d="M2250 762 c0 -5 7 -9 15 -9 8 0 12 4 9 9 -3 4 -9 8 -15 8 -5 0 -9 -4
-9 -8z"/>
<path d="M2340 756 c0 -2 9 -6 20 -9 11 -3 18 -1 14 4 -5 9 -34 13 -34 5z"/>
<path d="M1050 740 c0 -5 5 -10 11 -10 5 0 7 5 4 10 -3 6 -8 10 -11 10 -2 0
-4 -4 -4 -10z"/>
<path d="M2170 746 c0 -2 7 -7 16 -10 8 -3 12 -2 9 4 -6 10 -25 14 -25 6z"/>
<path d="M2293 735 c0 -8 4 -12 9 -9 5 3 6 10 3 15 -9 13 -12 11 -12 -6z"/>
<path d="M2071 727 c-8 -10 -7 -14 2 -14 8 0 14 6 14 14 0 7 -1 13 -2 13 -2 0
-8 -6 -14 -13z"/>
<path d="M2330 731 c0 -6 4 -13 10 -16 6 -3 7 1 4 9 -7 18 -14 21 -14 7z"/>
<path d="M3690 675 c-17 -17 -30 -34 -30 -38 0 -4 12 6 28 21 31 32 48 34 67
8 13 -18 14 -18 12 2 0 11 -5 18 -11 15 -5 -4 -7 0 -4 8 10 27 -31 16 -62 -16z"/>
<path d="M2335 689 c-4 -6 -14 -8 -24 -4 -13 5 -14 4 -3 -6 10 -11 15 -10 29
4 10 9 14 17 11 17 -4 0 -10 -5 -13 -11z"/>
<path d="M1986 682 c-3 -5 1 -9 9 -9 8 0 12 4 9 9 -3 4 -7 8 -9 8 -2 0 -6 -4
-9 -8z"/>
<path d="M2353 667 c0 -8 6 -14 14 -14 9 0 10 4 2 14 -6 7 -12 13 -14 13 -1 0
-2 -6 -2 -13z"/>
<path d="M3733 649 c-2 -23 3 -25 10 -4 4 8 3 16 -1 19 -4 3 -9 -4 -9 -15z"/>
<path d="M3710 651 c0 -7 -4 -10 -9 -7 -11 7 -9 -21 2 -29 4 -3 5 -2 2 2 -3 3
0 12 7 20 6 7 8 16 4 20 -3 3 -6 1 -6 -6z"/>
<path d="M1026 642 c-2 -4 4 -8 14 -8 10 0 16 4 14 8 -3 4 -9 8 -14 8 -5 0
-11 -4 -14 -8z"/>
<path d="M3766 637 c-16 -12 -16 -13 3 -13 11 0 18 3 15 7 -2 4 2 10 8 12 7 3
8 6 2 6 -5 1 -18 -5 -28 -12z"/>
<path d="M2486 629 c3 -5 0 -9 -5 -9 -16 0 -13 -17 3 -23 10 -4 13 -1 10 7 -3
8 -1 17 5 21 7 3 11 -2 11 -14 0 -12 4 -21 9 -21 10 0 9 26 -2 37 -11 11 -38
13 -31 2z"/>
<path d="M1876 613 c-6 -14 -5 -15 5 -6 7 7 10 15 7 18 -3 3 -9 -2 -12 -12z"/>
<path d="M2429 624 c6 -3 8 -11 5 -19 -3 -7 -1 -15 4 -19 5 -3 8 5 7 16 -1 12
-7 23 -14 24 -6 1 -7 0 -2 -2z"/>
<path d="M3636 578 c3 -5 10 -6 15 -3 13 9 11 12 -6 12 -8 0 -12 -4 -9 -9z"/>
<path d="M2513 565 c0 -8 4 -12 9 -9 5 3 6 10 3 15 -9 13 -12 11 -12 -6z"/>
<path d="M1045 560 c-3 -5 -1 -10 4 -10 6 0 11 5 11 10 0 6 -2 10 -4 10 -3 0
-8 -4 -11 -10z"/>
<path d="M3799 553 c-13 -16 -12 -17 4 -4 9 7 17 15 17 17 0 8 -8 3 -21 -13z"/>
<path d="M3865 560 c-3 -6 1 -7 9 -4 18 7 21 14 7 14 -6 0 -13 -4 -16 -10z"/>
<path d="M3915 560 c-3 -5 -2 -10 4 -10 5 0 13 5 16 10 3 6 2 10 -4 10 -5 0
-13 -4 -16 -10z"/>
<path d="M3936 542 c-2 -4 -2 -12 2 -17 9 -13 44 -16 36 -4 -3 5 -12 9 -20 9
-8 0 -12 5 -9 10 3 6 4 10 1 10 -3 0 -7 -4 -10 -8z"/>
<path d="M2557 533 c-4 -3 -7 -11 -7 -17 0 -6 5 -5 12 2 6 6 9 14 7 17 -3 3
-9 2 -12 -2z"/>
<path d="M4030 520 c0 -5 5 -10 11 -10 5 0 7 5 4 10 -3 6 -8 10 -11 10 -2 0
-4 -4 -4 -10z"/>
<path d="M3530 499 c0 -5 5 -7 10 -4 6 3 10 8 10 11 0 2 -4 4 -10 4 -5 0 -10
-5 -10 -11z"/>
<path d="M2593 484 c1 -11 -4 -18 -11 -16 -8 1 -11 -2 -7 -9 5 -8 12 -6 23 5
12 12 13 19 5 27 -8 8 -11 6 -10 -7z"/>
<path d="M993 473 c0 -6 5 -9 11 -5 6 4 14 7 18 7 19 0 14 11 -6 11 -12 0 -23
-6 -23 -13z"/>
<path d="M1631 474 c0 -11 3 -14 6 -6 3 7 2 16 -1 19 -3 4 -6 -2 -5 -13z"/>
<path d="M4097 481 c8 -9 9 -21 2 -39 -5 -13 -8 -27 -5 -29 2 -2 8 9 14 26 9
24 7 32 -6 42 -14 11 -15 11 -5 0z"/>
<path d="M4030 463 c0 -6 8 -17 18 -24 16 -13 16 -13 2 6 -8 11 -16 22 -17 24
-2 2 -3 0 -3 -6z"/>
<path d="M1030 451 c0 -6 4 -12 8 -15 5 -3 9 1 9 9 0 8 -4 15 -9 15 -4 0 -8
-4 -8 -9z"/>
<path d="M2609 443 c-13 -16 -12 -17 4 -4 16 13 21 21 13 21 -2 0 -10 -8 -17
-17z"/>
<path d="M2640 440 c-9 -6 -10 -10 -3 -10 6 0 15 5 18 10 8 12 4 12 -15 0z"/>
<path d="M4155 441 c4 -8 2 -17 -6 -22 -9 -6 -10 -9 -2 -9 19 0 27 21 13 33
-10 9 -11 9 -5 -2z"/>
<path d="M970 386 c0 -3 14 -12 30 -21 17 -9 30 -13 30 -11 0 3 -13 12 -30 21
-16 9 -30 13 -30 11z"/>
<path d="M1435 371 c-3 -5 -2 -12 3 -15 5 -3 9 1 9 9 0 17 -3 19 -12 6z"/>
<path d="M2820 363 c0 -6 14 -21 30 -33 30 -21 31 -23 15 -49 l-16 -26 20 23
c20 23 20 25 3 47 -9 13 -20 21 -24 19 -4 -3 -11 4 -17 13 -6 10 -11 13 -11 6z"/>
<path d="M4135 360 c3 -5 8 -10 11 -10 2 0 4 5 4 10 0 6 -5 10 -11 10 -5 0 -7
-4 -4 -10z"/>
<path d="M4170 359 c0 -5 5 -7 10 -4 6 3 10 8 10 11 0 2 -4 4 -10 4 -5 0 -10
-5 -10 -11z"/>
<path d="M4280 345 c-6 -8 -10 -20 -7 -27 3 -8 6 -6 6 5 1 10 5 16 10 12 5 -3
12 -1 15 4 10 16 -11 22 -24 6z"/>
<path d="M1364 326 c-10 -8 -17 -16 -14 -19 3 -2 14 4 24 14 23 22 18 25 -10
5z"/>
<path d="M2786 318 c6 -9 44 -6 44 3 0 4 -11 6 -24 5 -13 0 -22 -4 -20 -8z"/>
<path d="M1294 294 c-18 -15 -18 -15 2 -5 12 6 25 7 29 3 5 -4 5 -1 1 6 -9 15
-8 15 -32 -4z"/>
<path d="M2835 301 c-3 -5 0 -13 6 -17 7 -4 9 -3 5 4 -3 5 0 13 6 15 9 4 10 6
1 6 -6 1 -14 -3 -18 -8z"/>
<path d="M4474 264 c-18 -14 -18 -15 4 -4 12 6 22 13 22 15 0 8 -5 6 -26 -11z"/>
<path d="M3230 256 c0 -2 8 -10 18 -17 15 -13 16 -12 3 4 -13 16 -21 21 -21
13z"/>
<path d="M4490 250 c-9 -6 -10 -10 -3 -10 6 0 15 5 18 10 8 12 4 12 -15 0z"/>
<path d="M3004 242 c4 -7 3 -12 -2 -12 -5 0 -9 -7 -9 -15 0 -20 4 -19 17 4 7
14 7 22 -2 27 -7 4 -8 3 -4 -4z"/>
<path d="M4586 238 c3 -5 10 -6 15 -3 13 9 11 12 -6 12 -8 0 -12 -4 -9 -9z"/>
<path d="M3026 222 c-3 -5 1 -9 9 -9 8 0 12 4 9 9 -3 4 -7 8 -9 8 -2 0 -6 -4
-9 -8z"/>
<path d="M4405 220 c-3 -6 1 -7 9 -4 18 7 21 14 7 14 -6 0 -13 -4 -16 -10z"/>
<path d="M956 198 c3 -5 10 -6 15 -3 13 9 11 12 -6 12 -8 0 -12 -4 -9 -9z"/>
<path d="M925 160 c-3 -6 1 -7 9 -4 18 7 21 14 7 14 -6 0 -13 -4 -16 -10z"/>
<path d="M2950 166 c0 -2 7 -7 16 -10 8 -3 12 -2 9 4 -6 10 -25 14 -25 6z"/>
</g>
</svg>
